<?xml version="1.0" standalone="no"?>
<!DOCTYPE svg PUBLIC "-//W3C//DTD SVG 20010904//EN"
 "http://www.w3.org/TR/2001/REC-SVG-20010904/DTD/svg10.dtd">
<svg version="1.0" xmlns="http://www.w3.org/2000/svg"
 width="1280.000000pt" height="1162.000000pt" viewBox="0 0 1280.000000 1162.000000"
 preserveAspectRatio="xMidYMid meet">
<metadata>
Created by potrace 1.15, written by Peter Selinger 2001-2017
</metadata>
<g transform="translate(0.000000,1162.000000) scale(0.100000,-0.100000)"
fill="#000000" stroke="none">
<path d="M9454 11606 c-152 -35 -317 -160 -387 -294 -54 -103 -67 -160 -67
-291 0 -96 4 -128 24 -183 31 -88 64 -143 127 -212 113 -124 257 -186 432
-186 169 0 286 45 403 154 78 72 128 149 161 245 28 84 32 266 7 352 -55 187
-199 337 -384 399 -83 28 -230 35 -316 16z"/>
<path d="M6900 10924 c-11 -12 -10 -18 3 -32 16 -15 18 -15 34 0 13 14 14 20
3 32 -7 9 -16 16 -20 16 -4 0 -13 -7 -20 -16z"/>
<path d="M6617 10924 c-12 -12 -8 -42 6 -47 21 -8 39 8 35 29 -3 19 -29 30
-41 18z"/>
<path d="M7087 10917 c-8 -21 8 -39 29 -35 27 5 25 42 -2 46 -12 2 -24 -3 -27
-11z"/>
<path d="M7254 10905 c-8 -19 3 -35 26 -35 19 0 30 17 23 38 -6 17 -42 15 -49
-3z"/>
<path d="M6443 10894 c-3 -8 -1 -20 5 -26 16 -16 42 -2 42 22 0 24 -38 28 -47
4z"/>
<path d="M7431 10900 c-19 -11 -9 -45 14 -45 13 0 21 8 23 21 3 23 -17 37 -37
24z"/>
<path d="M6277 10876 c-7 -19 18 -40 39 -32 8 3 14 14 12 23 -4 22 -43 29 -51
9z"/>
<path d="M7584 10865 c-8 -19 3 -35 26 -35 19 0 34 25 24 41 -8 14 -44 10 -50
-6z"/>
<path d="M6123 10863 c-19 -7 -16 -40 4 -47 21 -8 36 6 31 30 -3 19 -16 25
-35 17z"/>
<path d="M7752 10828 c2 -15 10 -23 23 -23 30 0 27 39 -3 43 -20 3 -23 0 -20
-20z"/>
<path d="M5952 10808 c2 -15 10 -23 23 -23 30 0 27 39 -3 43 -20 3 -23 0 -20
-20z"/>
<path d="M7917 10814 c-13 -13 -7 -42 10 -48 21 -8 36 6 31 30 -3 19 -29 30
-41 18z"/>
<path d="M5794 10785 c-18 -13 -18 -15 -2 -31 18 -18 48 -13 48 9 0 26 -25 38
-46 22z"/>
<path d="M8080 10765 c-25 -30 10 -61 38 -33 17 17 15 26 -7 37 -14 8 -22 7
-31 -4z"/>
<path d="M5629 10734 c-11 -14 -10 -18 6 -30 16 -12 21 -12 33 0 17 17 9 46
-11 46 -8 0 -21 -7 -28 -16z"/>
<path d="M8240 10714 c-11 -12 -10 -18 3 -32 16 -15 18 -15 34 0 13 14 14 20
3 32 -7 9 -16 16 -20 16 -4 0 -13 -7 -20 -16z"/>
<path d="M5477 10693 c-10 -9 -8 -41 2 -47 16 -10 41 5 41 24 0 10 -7 21 -16
24 -19 7 -19 7 -27 -1z"/>
<path d="M3635 10675 c-165 -36 -330 -138 -434 -269 -309 -390 -203 -935 229
-1185 30 -18 62 -36 70 -40 40 -23 166 -45 281 -49 105 -4 139 -1 209 17 358
90 600 398 600 761 0 361 -242 670 -594 760 -93 24 -265 26 -361 5z"/>
<path d="M8394 10655 c-4 -9 -2 -21 4 -27 15 -15 44 -1 40 19 -4 23 -36 29
-44 8z"/>
<path d="M5317 10634 c-12 -12 -8 -42 6 -47 21 -8 39 8 35 29 -3 19 -29 30
-41 18z"/>
<path d="M8547 10597 c-8 -21 8 -39 29 -35 27 5 25 42 -2 46 -12 2 -24 -3 -27
-11z"/>
<path d="M5162 10548 c2 -15 10 -23 23 -23 30 0 27 39 -3 43 -20 3 -23 0 -20
-20z"/>
<path d="M10419 10544 c-359 -65 -662 -337 -763 -687 -176 -608 255 -1219 885
-1254 483 -27 905 294 1015 772 28 123 24 320 -9 448 -84 317 -325 579 -630
683 -154 53 -341 67 -498 38z"/>
<path d="M8702 10518 c2 -15 10 -23 23 -23 30 0 27 39 -3 43 -20 3 -23 0 -20
-20z"/>
<path d="M5005 10490 c-10 -17 20 -44 40 -36 9 3 15 14 13 23 -4 21 -43 30
-53 13z"/>
<path d="M8857 10464 c-4 -4 -7 -16 -7 -26 0 -14 6 -19 23 -16 14 2 22 10 22
23 0 20 -25 32 -38 19z"/>
<path d="M4867 10424 c-10 -10 -9 -42 2 -48 18 -11 42 6 39 28 -3 21 -28 33
-41 20z"/>
<path d="M8996 10381 c-11 -18 6 -42 28 -39 29 4 29 42 -1 46 -11 2 -24 -1
-27 -7z"/>
<path d="M4720 10335 c-16 -19 -5 -47 17 -43 22 4 29 43 9 51 -8 3 -20 -1 -26
-8z"/>
<path d="M9147 10304 c-12 -12 -8 -42 6 -47 21 -8 39 8 35 29 -3 19 -29 30
-41 18z"/>
<path d="M4574 10246 c-9 -24 4 -48 23 -44 12 2 18 12 18 28 0 29 -32 41 -41
16z"/>
<path d="M9287 10214 c-10 -10 -9 -42 2 -48 18 -11 42 6 39 28 -3 21 -28 33
-41 20z"/>
<path d="M9414 10105 c-4 -9 -2 -21 4 -27 16 -16 47 -5 47 17 0 26 -42 34 -51
10z"/>
<path d="M9552 10008 c-15 -18 1 -41 24 -36 23 4 26 41 3 46 -9 1 -21 -3 -27
-10z"/>
<path d="M6485 9523 c-552 -44 -1023 -172 -1487 -404 -396 -198 -699 -418
-1027 -746 l-185 -184 -135 45 c-374 124 -742 137 -1123 41 -717 -182 -1286
-787 -1427 -1518 -22 -112 -46 -383 -38 -424 4 -20 -12 -36 -112 -110 -452
-338 -771 -827 -895 -1373 -52 -227 -69 -542 -42 -774 127 -1090 950 -1926
2046 -2077 142 -20 478 -17 625 5 495 74 938 291 1294 632 l111 106 72 -64
c382 -338 848 -606 1331 -769 91 -31 97 -34 97 -60 0 -16 7 -81 15 -146 84
-638 476 -1193 1050 -1485 894 -455 1982 -166 2532 673 72 110 168 306 209
424 15 44 29 82 30 84 2 2 42 -13 89 -34 670 -287 1450 -248 2078 106 564 318
973 851 1132 1473 54 212 69 342 69 581 0 239 -15 369 -69 581 -210 825 -859
1479 -1680 1694 -90 23 -284 62 -330 65 -16 2 -37 3 -46 4 -13 1 -17 19 -23
93 -36 514 -220 1106 -491 1583 -643 1134 -1806 1873 -3104 1975 -122 9 -466
11 -566 3z"/>
<path d="M3404 9065 c-4 -9 -2 -21 4 -27 15 -15 44 -1 40 19 -4 23 -36 29 -44
8z"/>
<path d="M3320 8924 c-11 -12 -10 -18 3 -32 16 -15 18 -15 34 0 13 14 14 20 3
32 -7 9 -16 16 -20 16 -4 0 -13 -7 -20 -16z"/>
<path d="M3236 8781 c-11 -18 6 -42 28 -39 29 4 29 42 -1 46 -11 2 -24 -1 -27
-7z"/>
<path d="M3164 8625 c-8 -19 3 -35 26 -35 19 0 30 17 23 38 -6 17 -42 15 -49
-3z"/>
<path d="M10654 8565 c-8 -19 3 -35 26 -35 19 0 30 17 23 38 -6 17 -42 15 -49
-3z"/>
<path d="M3107 8483 c-12 -12 -7 -41 7 -46 19 -7 40 18 32 38 -6 15 -28 20
-39 8z"/>
<path d="M10720 8414 c-11 -12 -10 -18 3 -32 16 -15 18 -15 34 0 13 14 14 20
3 32 -7 9 -16 16 -20 16 -4 0 -13 -7 -20 -16z"/>
<path d="M10774 8256 c-8 -21 13 -46 32 -39 20 8 13 47 -9 51 -9 2 -20 -4 -23
-12z"/>
<path d="M10827 8104 c-12 -12 -8 -42 6 -47 21 -8 39 8 35 29 -3 19 -29 30
-41 18z"/>
<path d="M10871 7940 c-19 -11 -9 -45 14 -45 13 0 21 8 23 21 3 23 -17 37 -37
24z"/>
<path d="M10894 7765 c-8 -20 4 -35 27 -35 14 0 19 7 19 25 0 18 -5 25 -20 25
-11 0 -23 -7 -26 -15z"/>
<path d="M10920 7604 c-11 -12 -10 -18 3 -32 16 -15 18 -15 33 0 19 18 12 48
-9 48 -8 0 -20 -7 -27 -16z"/>
<path d="M10934 7435 c-8 -19 3 -35 26 -35 19 0 30 17 23 38 -6 17 -42 15 -49
-3z"/>
<path d="M10944 7165 c-8 -20 4 -35 26 -35 23 0 32 13 24 34 -8 20 -43 21 -50
1z"/>
<path d="M10944 6995 c-9 -23 4 -47 23 -43 22 4 30 38 11 49 -19 13 -28 11
-34 -6z"/>
<path d="M10937 6834 c-4 -4 -7 -16 -7 -26 0 -14 6 -19 23 -16 14 2 22 10 22
23 0 20 -25 32 -38 19z"/>
<path d="M10912 6648 c4 -30 43 -33 43 -3 0 13 -8 21 -23 23 -20 3 -23 0 -20
-20z"/>
<path d="M10887 6504 c-4 -4 -7 -16 -7 -26 0 -14 6 -19 23 -16 14 2 22 10 22
23 0 20 -25 32 -38 19z"/>
<path d="M10850 6334 c-11 -12 -10 -18 3 -32 16 -15 18 -15 34 0 13 14 14 20
3 32 -7 9 -16 16 -20 16 -4 0 -13 -7 -20 -16z"/>
<path d="M10812 6181 c-20 -12 -10 -46 13 -46 14 0 20 7 20 24 0 27 -13 35
-33 22z"/>
<path d="M10757 6024 c-12 -12 -8 -42 6 -47 21 -8 39 8 35 29 -3 19 -29 30
-41 18z"/>
</g>
</svg>
